<svg xmlns="http://www.w3.org/2000/svg" version="1.0" width="800.000000pt" height="800.000000pt" viewBox="0 0 800.000000 800.000000" preserveAspectRatio="xMidYMid meet">
<metadata fill="#494f85">
Created by potrace 1.16, written by Peter Selinger 2001-2019
</metadata>
<g transform="translate(0.000000,800.000000) scale(0.100000,-0.100000)" fill="#494f85" stroke="none">
<path d="M3625 7735 c-474 -51 -929 -185 -1335 -393 -354 -181 -637 -389 -936 -687 -322 -320 -540 -625 -734 -1028 -182 -378 -286 -730 -345 -1167 -22 -161 -31 -573 -16 -751 74 -893 440 -1698 1055 -2327 717 -733 1664 -1132 2686 -1132 861 0 1669 282 2341 817 171 136 455 420 589 588 475 599 747 1287 811 2053 15 181 7 583 -16 752 -19 143 -66 390 -96 500 -236 872 -755 1609 -1504 2135 -177 125 -492 294 -707 381 -306 123 -594 198 -965 250 -154 22 -657 27 -828 9z m699 -535 c744 -71 1444 -410 1977 -957 246 -252 421 -497 575 -805 169 -337 273 -688 321 -1078 23 -188 22 -529 -1 -725 -116 -981 -658 -1837 -1496 -2365 -138 -86 -413 -223 -564 -280 -625 -235 -1315 -270 -1961 -100 -777 206 -1451 700 -1891 1386 -97 152 -237 432 -298 599 -142 384 -198 708 -199 1135 0 261 12 392 58 625 96 479 331 983 635 1365 101 126 302 334 425 440 388 333 843 565 1341 686 350 84 708 109 1078 74z" fill="#494f85"/>
<path d="M4390 5989 c-43 -17 -80 -61 -95 -114 -8 -27 -50 -221 -94 -430 -44 -209 -114 -537 -156 -730 -41 -192 -75 -353 -75 -357 0 -5 13 -8 28 -8 56 0 148 -31 203 -69 l56 -38 132 621 c73 342 150 703 171 802 33 154 38 187 29 220 -24 88 -117 136 -199 103z" fill="#494f85"/>
<path d="M3032 4809 c-77 -39 -106 -148 -58 -221 12 -19 592 -419 683 -471 7 -5 20 11 34 40 28 57 94 125 148 149 22 11 40 21 41 24 0 5 -575 394 -683 463 -61 39 -111 44 -165 16z" fill="#494f85"/>
<path d="M3810 3518 c-152 -480 -181 -573 -213 -678 -19 -63 -119 -382 -222 -707 -152 -484 -184 -596 -175 -613 15 -27 56 -26 74 3 7 12 45 123 84 247 39 124 133 425 210 670 77 245 192 612 255 816 64 204 119 377 122 386 4 11 -2 17 -22 21 -15 3 -36 9 -45 12 -14 6 -25 -19 -68 -157z" fill="#494f85"/>
</g>
</svg>